<?xml version="1.0" encoding="utf-8"?>
<!-- Generator: Adobe Illustrator 23.0.2, SVG Export Plug-In . SVG Version: 6.00 Build 0)  -->
<svg version="1.1" id="Layer_1" xmlns="http://www.w3.org/2000/svg" xmlns:xlink="http://www.w3.org/1999/xlink" x="0px" y="0px"
	 viewBox="0 0 493.33 493.27" style="enable-background:new 0 0 493.33 493.27;" xml:space="preserve">
<style type="text/css">
	.st0{fill:none;}
	.st1{fill:#64C9D3;}
	.st2{fill:#9B350C;}
	.st3{fill:#F89A3E;}
	.st4{fill:#E14934;}
</style>
<g>
	<path class="st0" d="M324.91,74.51c10.62,6.23,20.84,12.58,30.64,19.03C345.25,86.29,335.02,79.92,324.91,74.51z"/>
	<path class="st0" d="M177.14,81.03c-57.21,56.04-68.71,187.61-33.65,342.55c68.51,15.72,168.27-26.32,269.56-109.61
		c0.76-3.22,1.38-6.47,1.81-9.77C425.47,221.98,328.37,136.9,177.14,81.03z M319.42,259.13c-3.78,34.98-35.2,60.27-70.18,56.49
		c-34.98-3.78-60.28-35.2-56.49-70.19c3.78-34.97,35.2-60.27,70.18-56.49C297.91,192.73,323.21,224.16,319.42,259.13z"/>
	<path class="st0" d="M493.13,239.59L493.13,239.59l-0.02-0.04C493.11,239.55,493.12,239.57,493.13,239.59z"/>
	<path class="st1" d="M262.94,188.95c-34.98-3.78-66.4,21.51-70.18,56.49c-3.79,34.98,21.51,66.41,56.49,70.19
		c34.97,3.78,66.39-21.51,70.18-56.49C323.21,224.16,297.91,192.73,262.94,188.95z"/>
	<path class="st2" d="M355.56,93.54c-9.8-6.46-20.03-12.8-30.64-19.03c-42.25-22.64-82.31-28.78-116.23-14.63
		c-11.73,4.89-22.24,12.03-31.54,21.15C328.37,136.9,425.47,221.98,414.85,304.2c-0.43,3.3-1.05,6.56-1.81,9.77
		c26.77-22.01,53.65-46.91,80.09-74.39c-0.01-0.01-0.01-0.03-0.01-0.03C449.02,176.12,401.57,125.93,355.56,93.54z"/>
	<path class="st2" d="M463.67,363.93c-80.32,63.3-159.39,107.72-229.58,129C330.95,497.98,419.42,445.77,463.67,363.93z"/>
	<path class="st3" d="M104.22,405.52c11.47,8.76,24.67,14.71,39.27,18.06c-35.06-154.94-23.56-286.51,33.65-342.55
		c9.31-9.12,19.82-16.26,31.54-21.15c33.92-14.15,73.98-8,116.23,14.63c10.11,5.41,20.34,11.78,30.64,19.03
		c46.02,32.39,93.46,82.58,137.56,146l0.02,0.03c0.03-0.03,0.07-0.07,0.1-0.1C489.9,120.24,400.3,17.81,278.27,2.05
		c-48.95-6.32-96.37,2.23-137.81,22.06C49.27,193.1,30.13,348.97,104.22,405.52z"/>
	<path class="st4" d="M491.3,278.26c1.69-13.07,2.29-26.02,1.93-38.78c-0.03,0.03-0.07,0.07-0.1,0.1l0,0
		c-26.44,27.48-53.31,52.37-80.09,74.39C311.76,397.26,211.99,439.3,143.49,423.58c-14.6-3.35-27.79-9.3-39.27-18.06
		C30.13,348.97,49.27,193.1,140.45,24.11C67.53,59,13.18,128.94,2.06,215.09c-17.45,135.1,77.93,258.76,213.05,276.21
		c6.36,0.82,12.68,1.31,18.98,1.64c70.2-21.28,149.26-65.7,229.58-129C477.68,338.03,487.3,309.2,491.3,278.26z"/>
</g>
</svg>
